<svg width="60" height="60" viewBox="0 0 60 60" fill="none" xmlns="http://www.w3.org/2000/svg">
<path d="M53.3107 50.1563C49.4388 43.4625 43.2326 38.8922 36.042 37.2446C39.4588 35.8447 42.2836 33.3018 44.0336 30.0503C45.7836 26.7989 46.3504 23.0407 45.637 19.4177C44.9236 15.7948 42.9744 12.532 40.1223 10.1867C37.2702 7.84148 33.6923 6.55933 29.9998 6.55933C26.3073 6.55933 22.7293 7.84148 19.8773 10.1867C17.0252 12.532 15.0759 15.7948 14.3625 19.4177C13.6491 23.0407 14.2159 26.7989 15.9659 30.0503C17.716 33.3018 20.5407 35.8447 23.9576 37.2446C16.7763 38.8852 10.5607 43.4625 6.68883 50.1563C6.57675 50.3705 6.55179 50.6198 6.61916 50.8521C6.68653 51.0843 6.84102 51.2815 7.05037 51.4025C7.25971 51.5235 7.50771 51.5589 7.74257 51.5014C7.97743 51.4439 8.18098 51.2978 8.3107 51.0938C12.8904 43.1696 21.0045 38.4375 29.9998 38.4375C38.9951 38.4375 47.1091 43.1696 51.6888 51.0938C51.771 51.2362 51.8892 51.3544 52.0316 51.4367C52.1739 51.519 52.3354 51.5624 52.4998 51.5625C52.6645 51.563 52.8264 51.5193 52.9685 51.436C53.1834 51.3115 53.3402 51.1068 53.4043 50.8669C53.4685 50.627 53.4348 50.3714 53.3107 50.1563ZM15.9373 22.5C15.9373 19.7187 16.762 16.9999 18.3072 14.6873C19.8524 12.3748 22.0487 10.5723 24.6183 9.50798C27.1879 8.44362 30.0154 8.16514 32.7432 8.70774C35.4711 9.25035 37.9768 10.5897 39.9435 12.5563C41.9101 14.523 43.2495 17.0287 43.7921 19.7566C44.3347 22.4844 44.0562 25.3119 42.9918 27.8815C41.9275 30.4511 40.125 32.6474 37.8125 34.1926C35.4999 35.7378 32.7811 36.5625 29.9998 36.5625C26.2715 36.5582 22.6972 35.0752 20.0609 32.4389C17.4246 29.8026 15.9416 26.2283 15.9373 22.5Z" fill="#828282"/>
</svg>
