<svg width="17" height="15" viewBox="0 0 17 15" fill="none" xmlns="http://www.w3.org/2000/svg">
<path d="M0.681648 4.09097V2.38643C0.681648 1.93436 0.861232 1.50081 1.18089 1.18114C1.50056 0.861482 1.93411 0.681898 2.38618 0.681898H14.3179C14.77 0.681898 15.2036 0.861482 15.5232 1.18114C15.8429 1.50081 16.0225 1.93436 16.0225 2.38643V4.09097M0.681648 4.09097V9.20458M0.681648 4.09097H5.79526M16.0225 4.09097V9.20458M16.0225 4.09097H5.79526M0.681648 9.20458V12.6137C0.681648 13.0657 0.861232 13.4993 1.18089 13.8189C1.50056 14.1386 1.93411 14.3182 2.38618 14.3182H5.79526M0.681648 9.20458H5.79526M5.79526 4.09097V9.20458M16.0225 9.20458V12.6137C16.0225 13.0657 15.8429 13.4993 15.5232 13.8189C15.2036 14.1386 14.77 14.3182 14.3179 14.3182H5.79526M16.0225 9.20458H5.79526M5.79526 14.3182V9.20458M10.9089 4.09097V14.3182" stroke="#D2D6E1" stroke-opacity="0.7" stroke-width="1.33333" stroke-linecap="round" stroke-linejoin="round"/>
<path d="M0.681648 2.38643C0.681648 1.93436 0.861232 1.50081 1.18089 1.18114C1.50056 0.861482 1.93411 0.681898 2.38618 0.681898H14.3179C14.77 0.681898 15.2036 0.861482 15.5232 1.18114C15.8429 1.50081 16.0225 1.93436 16.0225 2.38643V4.09097H0.681648V2.38643Z" fill="#D2D6E1" fill-opacity="0.7"/>
</svg>
