<svg width="26" height="26" viewBox="0 0 26 26" fill="none" xmlns="http://www.w3.org/2000/svg">
<path d="M23.9688 8.53125H2.03125C1.70802 8.53125 1.39802 8.40285 1.16946 8.17429C0.940904 7.94573 0.8125 7.63573 0.8125 7.3125C0.8125 6.98927 0.940904 6.67927 1.16946 6.45071C1.39802 6.22215 1.70802 6.09375 2.03125 6.09375H23.9688C24.292 6.09375 24.602 6.22215 24.8305 6.45071C25.0591 6.67927 25.1875 6.98927 25.1875 7.3125C25.1875 7.63573 25.0591 7.94573 24.8305 8.17429C24.602 8.40285 24.292 8.53125 23.9688 8.53125ZM19.9062 14.2188H6.09375C5.77052 14.2188 5.46052 14.0903 5.23196 13.8618C5.0034 13.6332 4.875 13.3232 4.875 13C4.875 12.6768 5.0034 12.3668 5.23196 12.1382C5.46052 11.9097 5.77052 11.7812 6.09375 11.7812H19.9062C20.2295 11.7812 20.5395 11.9097 20.768 12.1382C20.9966 12.3668 21.125 12.6768 21.125 13C21.125 13.3232 20.9966 13.6332 20.768 13.8618C20.5395 14.0903 20.2295 14.2188 19.9062 14.2188ZM15.0312 19.9062H10.9688C10.6455 19.9062 10.3355 19.7778 10.107 19.5493C9.8784 19.3207 9.75 19.0107 9.75 18.6875C9.75 18.3643 9.8784 18.0543 10.107 17.8257C10.3355 17.5972 10.6455 17.4688 10.9688 17.4688H15.0312C15.3545 17.4688 15.6645 17.5972 15.893 17.8257C16.1216 18.0543 16.25 18.3643 16.25 18.6875C16.25 19.0107 16.1216 19.3207 15.893 19.5493C15.6645 19.7778 15.3545 19.9062 15.0312 19.9062Z" fill="#1E222D"/>
</svg>
