<svg width="20" height="20" viewBox="0 0 20 20" fill="none" xmlns="http://www.w3.org/2000/svg">
<path d="M11.7325 1.25C11.8648 1.25 11.9937 1.292 12.1007 1.36995C12.2076 1.4479 12.287 1.55778 12.3275 1.68375L13.015 3.82C13.3038 3.96125 13.58 4.12 13.8438 4.29875L16.0388 3.82625C16.1682 3.79862 16.303 3.81278 16.4239 3.86669C16.5447 3.92061 16.6454 4.01149 16.7113 4.12625L18.4438 7.125C18.5099 7.2397 18.5379 7.37244 18.5238 7.50409C18.5096 7.63574 18.454 7.75949 18.365 7.8575L16.8588 9.52C16.8807 9.83879 16.8807 10.1587 16.8588 10.4775L18.365 12.1425C18.454 12.2405 18.5096 12.3643 18.5238 12.4959C18.5379 12.6276 18.5099 12.7603 18.4438 12.875L16.7113 15.875C16.6452 15.9895 16.5445 16.0802 16.4236 16.1338C16.3028 16.1875 16.168 16.2015 16.0388 16.1737L13.8438 15.7013C13.5813 15.8787 13.3038 16.0388 13.0163 16.18L12.3275 18.3162C12.287 18.4422 12.2076 18.5521 12.1007 18.63C11.9937 18.708 11.8648 18.75 11.7325 18.75H8.26751C8.13519 18.75 8.00628 18.708 7.89936 18.63C7.79243 18.5521 7.713 18.4422 7.67251 18.3162L6.98626 16.1812C6.69829 16.0404 6.42052 15.8796 6.15501 15.7L3.96126 16.1737C3.83184 16.2014 3.697 16.1872 3.57614 16.1333C3.45528 16.0794 3.35466 15.9885 3.28876 15.8738L1.55626 12.875C1.49011 12.7603 1.46208 12.6276 1.47624 12.4959C1.49039 12.3643 1.54599 12.2405 1.63501 12.1425L3.14126 10.4775C3.11944 10.1595 3.11944 9.84046 3.14126 9.5225L1.63501 7.8575C1.54599 7.75949 1.49039 7.63574 1.47624 7.50409C1.46208 7.37244 1.49011 7.2397 1.55626 7.125L3.28876 4.125C3.35484 4.01047 3.45554 3.91984 3.57639 3.86616C3.69723 3.81248 3.83198 3.79851 3.96126 3.82625L6.15501 4.3C6.42001 4.12125 6.69751 3.96 6.98626 3.81875L7.67376 1.68375C7.71412 1.55818 7.79317 1.4486 7.8996 1.37069C8.00602 1.29278 8.13437 1.25053 8.26626 1.25H11.7313H11.7325ZM11.275 2.5H8.72501L8.01501 4.70875L7.53626 4.9425C7.30091 5.05767 7.07371 5.18881 6.85626 5.335L6.41376 5.635L4.14376 5.145L2.86876 7.355L4.42501 9.0775L4.38751 9.6075C4.36955 9.86886 4.36955 10.1311 4.38751 10.3925L4.42501 10.9225L2.86626 12.645L4.14251 14.855L6.41251 14.3663L6.85501 14.665C7.07246 14.8112 7.29966 14.9423 7.53501 15.0575L8.01376 15.2913L8.72501 17.5H11.2775L11.99 15.29L12.4675 15.0575C12.7026 14.9426 12.9294 14.8114 13.1463 14.665L13.5875 14.3663L15.8588 14.855L17.1338 12.645L15.5763 10.9225L15.6138 10.3925C15.6318 10.1307 15.6318 9.86802 15.6138 9.60625L15.5763 9.07625L17.135 7.355L15.8588 5.145L13.5875 5.6325L13.1463 5.335C12.9294 5.18852 12.7026 5.05736 12.4675 4.9425L11.99 4.71L11.2763 2.5H11.275ZM10 6.25C10.9946 6.25 11.9484 6.64509 12.6517 7.34835C13.3549 8.05161 13.75 9.00544 13.75 10C13.75 10.9946 13.3549 11.9484 12.6517 12.6517C11.9484 13.3549 10.9946 13.75 10 13.75C9.00545 13.75 8.05162 13.3549 7.34836 12.6517C6.6451 11.9484 6.25001 10.9946 6.25001 10C6.25001 9.00544 6.6451 8.05161 7.34836 7.34835C8.05162 6.64509 9.00545 6.25 10 6.25ZM10 7.5C9.33697 7.5 8.70109 7.76339 8.23225 8.23223C7.76341 8.70107 7.50001 9.33696 7.50001 10C7.50001 10.663 7.76341 11.2989 8.23225 11.7678C8.70109 12.2366 9.33697 12.5 10 12.5C10.6631 12.5 11.2989 12.2366 11.7678 11.7678C12.2366 11.2989 12.5 10.663 12.5 10C12.5 9.33696 12.2366 8.70107 11.7678 8.23223C11.2989 7.76339 10.6631 7.5 10 7.5Z" fill="#D2D6E1" fill-opacity="0.7"/>
</svg>
