<svg width="20" height="20" viewBox="0 0 20 20" fill="none" xmlns="http://www.w3.org/2000/svg">
<path d="M15.1998 2.2002H4.79982C4.56005 2.20678 4.3252 2.26969 4.11425 2.38385C3.9033 2.49801 3.72218 2.66021 3.58553 2.85734L0.985533 6.45734C0.79247 6.73016 0.696053 7.05964 0.711582 7.3935C0.72711 7.72736 0.853694 8.04647 1.07125 8.3002L8.87125 17.2859C9.00478 17.458 9.17589 17.5972 9.3715 17.693C9.5671 17.7888 9.78202 17.8386 9.99982 17.8386C10.2176 17.8386 10.4325 17.7888 10.6281 17.693C10.8237 17.5972 10.9949 17.458 11.1284 17.2859L18.9284 8.3002C19.1459 8.04647 19.2725 7.72736 19.2881 7.3935C19.3036 7.05964 19.2072 6.73016 19.0141 6.45734L16.4141 2.85734C16.2775 2.66021 16.0963 2.49801 15.8854 2.38385C15.6744 2.26969 15.4396 2.20678 15.1998 2.2002Z" stroke="#D2D6E1" stroke-opacity="0.7" stroke-width="1.14286" stroke-linecap="round" stroke-linejoin="round"/>
<path d="M9.25696 2.18579L5.77125 7.58579L9.99982 17.8001L14.257 7.58579L10.7855 2.18579M0.742676 7.58579H19.257" stroke="#D2D6E1" stroke-opacity="0.7" stroke-width="1.14286" stroke-linecap="round" stroke-linejoin="round"/>
</svg>
