<svg width="20" height="20" viewBox="0 0 20 20" fill="none" xmlns="http://www.w3.org/2000/svg">
<path d="M10 3.33341C9.22645 3.33341 8.48459 3.64071 7.93761 4.18769C7.39062 4.73467 7.08333 5.47653 7.08333 6.25008C7.08333 7.02363 7.39062 7.76549 7.93761 8.31248C8.48459 8.85946 9.22645 9.16675 10 9.16675C10.7735 9.16675 11.5154 8.85946 12.0624 8.31248C12.6094 7.76549 12.9167 7.02363 12.9167 6.25008C12.9167 5.47653 12.6094 4.73467 12.0624 4.18769C11.5154 3.64071 10.7735 3.33341 10 3.33341ZM5.41667 6.25008C5.41667 5.03451 5.89955 3.86872 6.75909 3.00918C7.61864 2.14963 8.78442 1.66675 10 1.66675C11.2156 1.66675 12.3814 2.14963 13.2409 3.00918C14.1004 3.86872 14.5833 5.03451 14.5833 6.25008C14.5833 7.46566 14.1004 8.63145 13.2409 9.49099C12.3814 10.3505 11.2156 10.8334 10 10.8334C8.78442 10.8334 7.61864 10.3505 6.75909 9.49099C5.89955 8.63145 5.41667 7.46566 5.41667 6.25008ZM2.5 15.8334C2.5 14.7283 2.93899 13.6685 3.72039 12.8871C4.50179 12.1057 5.5616 11.6667 6.66667 11.6667H13.3333C14.4384 11.6667 15.4982 12.1057 16.2796 12.8871C17.061 13.6685 17.5 14.7283 17.5 15.8334V18.3334H2.5V15.8334ZM6.66667 13.3334C6.00363 13.3334 5.36774 13.5968 4.8989 14.0656C4.43006 14.5345 4.16667 15.1704 4.16667 15.8334V16.6667H15.8333V15.8334C15.8333 15.1704 15.5699 14.5345 15.1011 14.0656C14.6323 13.5968 13.9964 13.3334 13.3333 13.3334H6.66667Z" fill="#D2D6E1" fill-opacity="0.7"/>
</svg>
