<svg width="16" height="16" viewBox="0 0 16 16" fill="none" xmlns="http://www.w3.org/2000/svg">
<path fill-rule="evenodd" clip-rule="evenodd" d="M10.6953 0.497605C11.014 0.178989 11.4462 0 11.8968 0C12.3475 0 12.7797 0.178989 13.0984 0.497605L15.5024 2.90162C15.8211 3.22033 16 3.65254 16 4.1032C16 4.55386 15.8211 4.98607 15.5024 5.30478L13.0984 7.7088C12.7797 8.02741 12.3475 8.2064 11.8968 8.2064C11.4462 8.2064 11.014 8.02741 10.6953 7.7088L8.29125 5.30478C7.97264 4.98607 7.79365 4.55386 7.79365 4.1032C7.79365 3.65254 7.97264 3.22033 8.29125 2.90162L10.6953 0.497605ZM11.8968 1.70004L9.49369 4.1032L11.8968 6.50636L14.3 4.1032L11.8968 1.70004ZM5.09865 0.704101C5.5494 0.704101 5.98169 0.88316 6.30041 1.20189C6.61914 1.52061 6.7982 1.9529 6.7982 2.40365V5.80275C6.7982 6.2535 6.61914 6.68579 6.30041 7.00451C5.98169 7.32324 5.5494 7.5023 5.09865 7.5023H1.69955C1.2488 7.5023 0.816514 7.32324 0.497787 7.00451C0.179059 6.68579 0 6.2535 0 5.80275V2.40365C0 1.9529 0.179059 1.52061 0.497787 1.20189C0.816514 0.88316 1.2488 0.704101 1.69955 0.704101H5.09865ZM5.09865 2.40365H1.69955V5.80275H5.09865V2.40365ZM15.2959 10.9014C15.2959 10.4507 15.1169 10.0184 14.7982 9.69964C14.4794 9.38091 14.0471 9.20185 13.5964 9.20185H10.1973C9.74655 9.20185 9.31426 9.38091 8.99554 9.69964C8.67681 10.0184 8.49775 10.4507 8.49775 10.9014V14.3005C8.49775 14.7512 8.67681 15.1835 8.99554 15.5023C9.31426 15.821 9.74655 16 10.1973 16H13.5964C14.0471 16 14.4794 15.821 14.7982 15.5023C15.1169 15.1835 15.2959 14.7512 15.2959 14.3005V10.9014ZM13.5964 10.9014V14.3005H10.1973V10.9014H13.5964ZM5.09865 9.20185C5.5494 9.20185 5.98169 9.38091 6.30041 9.69964C6.61914 10.0184 6.7982 10.4507 6.7982 10.9014V14.3005C6.7982 14.7512 6.61914 15.1835 6.30041 15.5023C5.98169 15.821 5.5494 16 5.09865 16H1.69955C1.2488 16 0.816514 15.821 0.497787 15.5023C0.179059 15.1835 0 14.7512 0 14.3005V10.9014C0 10.4507 0.179059 10.0184 0.497787 9.69964C0.816514 9.38091 1.2488 9.20185 1.69955 9.20185H5.09865ZM5.09865 10.9014H1.69955V14.3005H5.09865V10.9014Z" fill="#91949A"/>
</svg>
