<svg width="16" height="16" viewBox="0 0 16 16" fill="none" xmlns="http://www.w3.org/2000/svg">
<path d="M14 13.9999L11.1047 11.1046M11.1047 11.1046C11.5999 10.6093 11.9928 10.0213 12.2608 9.37426C12.5289 8.72717 12.6668 8.03363 12.6668 7.33323C12.6668 6.63283 12.5289 5.93928 12.2608 5.2922C11.9928 4.64511 11.5999 4.05715 11.1047 3.56189C10.6094 3.06663 10.0215 2.67377 9.37438 2.40574C8.72729 2.13771 8.03375 1.99976 7.33335 1.99976C6.63295 1.99976 5.9394 2.13771 5.29232 2.40574C4.64523 2.67377 4.05727 3.06663 3.56202 3.56189C2.5618 4.56211 1.99988 5.9187 1.99988 7.33323C1.99988 8.74775 2.5618 10.1043 3.56202 11.1046C4.56224 12.1048 5.91882 12.6667 7.33335 12.6667C8.74787 12.6667 10.1045 12.1048 11.1047 11.1046Z" stroke="#636363" stroke-width="1.33333" stroke-linecap="round" stroke-linejoin="round"/>
</svg>
