<svg width="20" height="20" viewBox="0 0 20 20" fill="none" xmlns="http://www.w3.org/2000/svg">
<path d="M17.6977 4.40708L10.1977 1.90708C10.0694 1.86431 9.93064 1.86431 9.80234 1.90708L2.30234 4.40708C2.17789 4.44856 2.06965 4.52816 1.99296 4.63458C1.91626 4.741 1.87499 4.86886 1.875 5.00005V11.25C1.875 11.4158 1.94085 11.5748 2.05806 11.692C2.17527 11.8092 2.33424 11.875 2.5 11.875C2.66576 11.875 2.82473 11.8092 2.94194 11.692C3.05915 11.5748 3.125 11.4158 3.125 11.25V5.86723L5.74922 6.74145C5.052 7.86786 4.83029 9.22492 5.13276 10.5147C5.43524 11.8044 6.23718 12.9214 7.3625 13.6204C5.95625 14.1719 4.74062 15.1696 3.85156 16.5336C3.80532 16.6024 3.77321 16.6796 3.75708 16.7608C3.74095 16.8421 3.74113 16.9257 3.75761 17.0069C3.77409 17.0881 3.80654 17.1651 3.85307 17.2337C3.89961 17.3022 3.9593 17.3608 4.02867 17.406C4.09805 17.4513 4.17573 17.4823 4.25719 17.4973C4.33866 17.5122 4.42229 17.5108 4.50322 17.4932C4.58414 17.4756 4.66076 17.442 4.72861 17.3945C4.79646 17.347 4.85418 17.2865 4.89844 17.2165C6.07578 15.4102 7.93516 14.375 10 14.375C12.0648 14.375 13.9242 15.4102 15.1016 17.2165C15.1932 17.3527 15.3348 17.4474 15.4958 17.4801C15.6567 17.5127 15.824 17.4808 15.9616 17.391C16.0991 17.3013 16.1958 17.1611 16.2308 17.0007C16.2657 16.8402 16.2362 16.6725 16.1484 16.5336C15.2594 15.1696 14.0391 14.1719 12.6375 13.6204C13.7617 12.9214 14.5629 11.8052 14.8653 10.5164C15.1678 9.22757 14.9468 7.87144 14.2508 6.74536L17.6977 5.59692C17.8221 5.55546 17.9304 5.47588 18.0071 5.36945C18.0839 5.26302 18.1251 5.13515 18.1251 5.00395C18.1251 4.87275 18.0839 4.74488 18.0071 4.63845C17.9304 4.53203 17.8221 4.45245 17.6977 4.41098V4.40708ZM13.75 9.37505C13.7502 9.9679 13.6098 10.5524 13.3403 11.0804C13.0709 11.6085 12.6801 12.0652 12.1999 12.413C11.7198 12.7608 11.1641 12.9898 10.5783 13.0812C9.99256 13.1727 9.39347 13.1239 8.83019 12.939C8.26692 12.754 7.75553 12.4382 7.33796 12.0173C6.9204 11.5965 6.60857 11.0826 6.42805 10.5179C6.24754 9.9532 6.20349 9.35374 6.29952 8.76871C6.39554 8.18369 6.62891 7.62976 6.98047 7.15239L9.80234 8.08989C9.93064 8.13266 10.0694 8.13266 10.1977 8.08989L13.0195 7.15239C13.4944 7.79614 13.7504 8.57512 13.75 9.37505Z" fill="#D2D6E1" fill-opacity="0.7"/>
</svg>
